<svg width="557" height="125" viewBox="0 0 557 125" fill="none" xmlns="http://www.w3.org/2000/svg">
<path d="M556.335 0.651855H0V124.227H556.335V0.651855Z" fill="#386641"/>
<path d="M120.225 6.64014H6.07227V118.249H120.225V6.64014Z" fill="white"/>
<path d="M79.8018 42.6274L75.7705 57.6997L71.012 38.1411L65.6039 54.0205L57.7917 26.2788L48.24 65.5613L42.5795 54.0535L23.0986 98.6401H43.9961V96.751H36.9091L40.2082 90.597H38.2671L42.4345 84.4429H40.5023L45.1018 78.2811L49.5642 84.4429H47.632L51.7914 90.597H49.8593L53.1574 96.751H46.1637V98.6401H71.2048V93.9294H57.7986L64.0333 82.2818H60.3716L68.2523 70.6265H64.5986L73.2979 58.9701L81.7429 70.6255H78.0812L85.962 82.2818H82.3082L88.5438 93.9285H75.3135V98.6392H103.248L79.8018 42.6274Z" fill="#386641"/>
<g clip-path="url(#clip0_20_292)">
<path fill-rule="evenodd" clip-rule="evenodd" d="M368.16 64.7745V85.0987H346.469V41.8412C346.473 41.6095 346.574 41.388 346.751 41.2232C346.944 41.03 347.236 40.8561 347.627 40.7014C347.714 40.6672 347.802 40.6351 347.89 40.6053C348.705 40.3297 349.648 40.1134 350.72 39.9564C350.898 39.9304 351.077 39.9063 351.256 39.8843C352.553 39.7241 353.774 39.6096 354.921 39.541C356.068 39.4723 356.866 39.438 357.315 39.438H387.232C387.364 39.4383 387.496 39.4404 387.627 39.4442C388.095 39.457 388.761 39.4893 389.626 39.541C390.773 39.6096 391.994 39.7241 393.291 39.8843C394.587 40.0445 395.709 40.2848 396.657 40.6053C396.845 40.6677 397.029 40.7416 397.206 40.8263C397.787 41.1083 398.078 41.4466 398.078 41.8412V59.6248C398.078 59.9453 397.691 60.2886 396.918 60.6548C396.558 60.825 396.193 60.9875 395.825 61.1423C395.448 61.3007 395.047 61.4613 394.622 61.6243C394.478 61.6794 394.333 61.7339 394.188 61.7877C393.623 61.9981 393.054 62.1989 392.481 62.3899C392.068 62.5275 391.652 62.6586 391.234 62.7833C390.413 63.0278 389.82 63.2177 389.453 63.3532C389.411 63.3688 389.369 63.3848 389.327 63.4013L400.172 84.7554L378.631 85.442C378.578 85.3332 378.525 85.2244 378.472 85.1159C378.3 84.7675 378.057 84.28 377.743 83.6534C377.64 83.4485 377.537 83.2436 377.434 83.0388C377.194 82.5598 376.952 82.0812 376.709 81.6031C376.492 81.1778 376.264 80.7299 376.024 80.2594C375.771 79.7666 375.519 79.274 375.265 78.7817C374.502 77.2973 373.741 75.8117 372.983 74.3248C372.871 74.1054 372.759 73.8859 372.647 73.6664C371.75 71.904 370.902 70.2332 370.104 68.654C369.307 67.0747 368.658 65.7816 368.16 64.7745ZM477.958 55.4364V85.0987H457.016V50.7673H494.413C494.527 50.7676 494.64 50.7694 494.754 50.7728C495.188 50.7852 495.835 50.8177 496.695 50.8703C497.426 50.9159 498.157 50.9768 498.886 51.053C499.353 51.1014 499.819 51.1549 500.285 51.2136C500.773 51.2743 501.259 51.3508 501.742 51.443C502.219 51.535 502.663 51.6396 503.073 51.7568C503.229 51.8014 503.384 51.8493 503.538 51.9003C504.23 52.1296 504.655 52.4201 504.813 52.7716C504.861 52.8763 504.885 52.9885 504.885 53.1019V85.0987H483.942V55.4364H477.958ZM268.907 55.4364H242.729V50.7673H279.378C279.492 50.7676 279.605 50.7694 279.719 50.7728C280.154 50.7852 280.801 50.8177 281.66 50.8703C282.392 50.9159 283.122 50.9768 283.851 51.053C284.318 51.1014 284.784 51.1549 285.25 51.2136C285.738 51.2743 286.224 51.3508 286.707 51.443C287.185 51.535 287.628 51.6396 288.038 51.7568C288.194 51.8014 288.35 51.8493 288.503 51.9003C289.195 52.1296 289.62 52.4201 289.779 52.7716C289.826 52.8763 289.85 52.9885 289.85 53.1019V82.7642C289.846 82.965 289.762 83.1575 289.613 83.3046C289.443 83.4849 289.181 83.6513 288.829 83.8037C288.722 83.8497 288.613 83.8923 288.503 83.9314C287.606 84.2519 286.521 84.4922 285.25 84.6524C283.978 84.8126 282.782 84.9271 281.66 84.9957C281.417 85.0106 281.174 85.0248 280.93 85.0383C280.33 85.0717 279.873 85.0912 279.559 85.0966C279.499 85.0979 279.439 85.0986 279.378 85.0987H251.779C251.666 85.0984 251.552 85.0966 251.439 85.0932C251.004 85.0809 250.357 85.0484 249.498 84.9957C248.766 84.9502 248.035 84.8893 247.306 84.8131C246.84 84.7647 246.373 84.7111 245.908 84.6524C244.636 84.4922 243.552 84.2519 242.654 83.9314C241.757 83.611 241.308 83.2219 241.308 82.7642V63.8819C241.308 63.3784 241.757 62.9779 242.654 62.6803C243.417 62.4276 244.314 62.2244 245.347 62.0706C245.533 62.0429 245.72 62.0172 245.908 61.9937C247.179 61.8335 248.376 61.719 249.498 61.6504C249.741 61.6355 249.984 61.6213 250.227 61.6078C250.828 61.5744 251.285 61.5549 251.598 61.5494C251.659 61.5482 251.719 61.5475 251.779 61.5474H258.436C258.588 61.5475 258.74 61.5488 258.891 61.5515C259.392 61.5602 260.026 61.5817 260.792 61.6161C261.814 61.6618 262.899 61.7648 264.046 61.925C265.192 62.0852 266.215 62.3027 267.112 62.5773C267.32 62.6403 267.525 62.7134 267.725 62.7964C268.149 62.9744 268.466 63.1756 268.675 63.3999C268.735 63.464 268.787 63.5335 268.832 63.6073C268.873 63.6444 268.897 63.7116 268.904 63.8091C268.906 63.8334 268.907 63.8576 268.907 63.8819V55.4364ZM209.894 80.4296H236.072V85.0987H199.423C199.309 85.0984 199.196 85.0966 199.083 85.0932C198.648 85.0809 198.001 85.0484 197.142 84.9957C196.41 84.9502 195.679 84.8893 194.95 84.8131C194.483 84.7647 194.017 84.7111 193.551 84.6524C192.28 84.4922 191.195 84.2519 190.298 83.9314C189.4 83.611 188.952 83.2219 188.952 82.7642V53.1019C188.952 52.5983 189.4 52.1978 190.298 51.9003C191.06 51.6476 191.958 51.4444 192.991 51.2905C193.177 51.2628 193.364 51.2372 193.551 51.2136C194.823 51.0534 196.02 50.939 197.142 50.8703C197.385 50.8554 197.628 50.8412 197.871 50.8278C198.472 50.7943 198.929 50.7749 199.242 50.7694C199.302 50.7682 199.363 50.7675 199.423 50.7673H226.349C226.462 50.7676 226.576 50.7694 226.689 50.7728C227.124 50.7852 227.771 50.8177 228.63 50.8703C229.362 50.9159 230.093 50.9768 230.822 51.053C231.289 51.1014 231.755 51.1549 232.22 51.2136C232.709 51.2743 233.195 51.3508 233.677 51.443C234.155 51.535 234.599 51.6396 235.009 51.7568C235.165 51.8014 235.32 51.8493 235.474 51.9003C236.166 52.1296 236.591 52.4201 236.749 52.7716C236.797 52.8763 236.821 52.9885 236.82 53.1019V73.0141C236.817 73.2149 236.732 73.4074 236.583 73.5544C236.413 73.7348 236.152 73.9012 235.799 74.0536C235.692 74.0996 235.584 74.1422 235.474 74.1813C234.576 74.5018 233.492 74.7421 232.22 74.9023C230.949 75.0625 229.752 75.1769 228.63 75.2456C228.387 75.2605 228.144 75.2747 227.901 75.2882C227.3 75.3216 226.843 75.341 226.53 75.3465C226.47 75.3478 226.409 75.3485 226.349 75.3486H220.291C220.149 75.3485 220.007 75.3471 219.865 75.3445C219.388 75.3358 218.757 75.3143 217.972 75.2799C217.191 75.2448 216.412 75.1822 215.637 75.0925C215.318 75.0559 214.999 75.0154 214.681 74.971C213.534 74.8107 212.512 74.5933 211.614 74.3187C210.872 74.0916 210.351 73.8174 210.052 73.4961C209.992 73.432 209.939 73.3625 209.894 73.2887V80.4296ZM425.602 80.4296H451.78V85.0987H415.131C415.017 85.0984 414.904 85.0966 414.791 85.0932C414.356 85.0809 413.709 85.0484 412.85 84.9957C412.118 84.9502 411.387 84.8893 410.658 84.8131C410.191 84.7647 409.725 84.7111 409.259 84.6524C407.988 84.4922 406.903 84.2519 406.006 83.9314C405.108 83.611 404.66 83.2219 404.66 82.7642V53.1019C404.66 52.5983 405.108 52.1978 406.006 51.9003C406.768 51.6476 407.666 51.4444 408.699 51.2905C408.885 51.2628 409.072 51.2372 409.259 51.2136C410.531 51.0534 411.728 50.939 412.85 50.8703C413.093 50.8554 413.336 50.8412 413.579 50.8278C414.18 50.7943 414.637 50.7749 414.95 50.7694C415.01 50.7682 415.071 50.7675 415.131 50.7673H442.057C442.17 50.7676 442.284 50.7694 442.397 50.7728C442.832 50.7852 443.479 50.8177 444.338 50.8703C445.07 50.9159 445.801 50.9768 446.53 51.053C446.997 51.1014 447.463 51.1549 447.928 51.2136C448.417 51.2743 448.903 51.3508 449.385 51.443C449.863 51.535 450.307 51.6396 450.717 51.7568C450.873 51.8014 451.028 51.8493 451.182 51.9003C451.874 52.1296 452.299 52.4201 452.457 52.7716C452.504 52.8763 452.529 52.9885 452.528 53.1019V73.0141C452.525 73.2149 452.44 73.4074 452.291 73.5544C452.121 73.7348 451.86 73.9012 451.507 74.0536C451.4 74.0996 451.292 74.1422 451.182 74.1813C450.284 74.5018 449.2 74.7421 447.928 74.9023C446.657 75.0625 445.46 75.1769 444.338 75.2456C444.095 75.2605 443.852 75.2747 443.609 75.2882C443.008 75.3216 442.551 75.341 442.238 75.3465C442.178 75.3478 442.117 75.3485 442.057 75.3486H435.999C435.857 75.3485 435.715 75.3471 435.573 75.3445C435.096 75.3358 434.465 75.3143 433.68 75.2799C432.899 75.2448 432.12 75.1822 431.345 75.0925C431.026 75.0559 430.707 75.0154 430.389 74.971C429.242 74.8107 428.22 74.5933 427.322 74.3187C426.58 74.0916 426.059 73.8174 425.76 73.4961C425.7 73.432 425.647 73.3625 425.602 73.2887V80.4296ZM294.113 85.0987V39.438H315.056V65.3925L318.945 64.7059L321.039 50.836H341.982C341.97 50.9106 341.959 50.9852 341.947 51.0598C341.89 51.4311 341.794 52.0545 341.661 52.9302C341.656 52.9645 341.65 52.9989 341.645 53.0332C341.564 53.5642 341.485 54.0954 341.409 54.6269C341.304 55.3497 341.196 56.123 341.084 56.947C340.885 58.4118 340.685 59.8423 340.486 61.2384C340.349 62.1983 340.217 63.0555 340.092 63.8098C340.039 64.1317 339.983 64.4533 339.925 64.7745C339.904 64.8877 339.883 65.0007 339.862 65.1137C339.728 65.8265 339.639 66.2149 339.593 66.2789C339.592 66.2812 339.59 66.2832 339.588 66.2851C339.501 66.3725 339.4 66.4477 339.289 66.5083C338.921 66.7207 338.304 66.9468 337.439 67.1867C337.233 67.2433 337.027 67.2976 336.821 67.3494C336.2 67.5052 335.576 67.6529 334.95 67.7923C334.394 67.9163 333.808 68.0415 333.191 68.1679C332.545 68.3002 331.897 68.4279 331.249 68.551C329.08 68.963 326.873 69.3521 324.629 69.7183C323.695 69.8706 322.761 70.0242 321.827 70.179C320.688 70.368 319.627 70.5463 318.646 70.7139C318.267 70.7785 317.888 70.8426 317.509 70.9061C316.637 71.0521 315.953 71.1629 315.457 71.2384C315.323 71.2588 315.19 71.2785 315.056 71.2975V85.0987H294.113ZM523.808 56.8097H509.372V52.1406H516.104V42.5278H535.55V52.1406H544.526V56.8097H535.55V80.4296H544.526V85.0987H525.079C524.966 85.0984 524.852 85.0966 524.739 85.0932C524.304 85.0809 523.657 85.0484 522.798 84.9957C522.066 84.9502 521.335 84.8893 520.606 84.8131C520.139 84.7647 519.673 84.7111 519.208 84.6524C517.936 84.4922 516.852 84.2519 515.954 83.9314C515.057 83.611 514.608 83.2219 514.608 82.7642V59.7622C514.61 59.5526 514.699 59.3516 514.856 59.1998C515.025 59.0263 515.279 58.8705 515.618 58.7322C515.911 58.6139 516.212 58.5117 516.518 58.426C516.817 58.3413 517.138 58.2644 517.481 58.1953C517.694 58.1527 517.908 58.1142 518.123 58.0799C519.12 57.9197 520.13 57.7938 521.152 57.7023C521.516 57.6696 521.88 57.6385 522.244 57.6089C522.819 57.5627 523.34 57.5251 523.808 57.4963V56.8097ZM155.294 71.7095V85.0987H133.604V41.8412C133.607 41.6095 133.708 41.388 133.885 41.2232C134.078 41.03 134.37 40.8561 134.761 40.7014C134.848 40.6672 134.936 40.6351 135.025 40.6053C135.839 40.3297 136.782 40.1134 137.854 39.9564C138.033 39.9304 138.211 39.9063 138.39 39.8843C139.687 39.7241 140.908 39.6096 142.055 39.541C143.202 39.4723 144 39.438 144.449 39.438H173.619C173.75 39.4383 173.882 39.4404 174.014 39.4442C174.481 39.457 175.147 39.4893 176.012 39.541C177.159 39.6096 178.381 39.7241 179.677 39.8843C180.974 40.0445 182.095 40.2848 183.043 40.6053C183.231 40.6677 183.415 40.7416 183.593 40.8263C184.173 41.1083 184.464 41.4466 184.464 41.8412V69.3063C184.461 69.538 184.359 69.7595 184.182 69.9242C183.989 70.1174 183.697 70.2914 183.306 70.4461C183.219 70.4803 183.132 70.5123 183.043 70.5422C182.229 70.8178 181.285 71.0341 180.213 71.1911C180.035 71.2171 179.856 71.2411 179.677 71.2632C178.381 71.4234 177.159 71.5378 176.012 71.6065C174.865 71.6751 174.067 71.7095 173.619 71.7095H155.294ZM341.234 73.426V85.0987H320.291V71.0915H330.762C330.876 71.0918 330.989 71.0936 331.103 71.097C331.538 71.1094 332.185 71.1419 333.044 71.1945C333.776 71.24 334.506 71.3009 335.235 71.3771C335.702 71.4256 336.168 71.4791 336.634 71.5378C337.122 71.5985 337.608 71.675 338.091 71.7672C338.568 71.8592 339.012 71.9638 339.422 72.0809C339.578 72.1256 339.733 72.1735 339.887 72.2244C340.579 72.4538 341.004 72.7442 341.163 73.0958C341.21 73.2004 341.234 73.3127 341.234 73.426ZM155.294 44.2444V66.9031H162.773V44.2444H155.294ZM376.387 58.9382V44.2444H368.16V61.8907C368.444 61.7312 368.737 61.5841 369.036 61.4499C369.33 61.3176 369.647 61.1867 369.988 61.0571C370.2 60.977 370.413 60.9001 370.628 60.8264C371.589 60.4963 372.557 60.1846 373.532 59.8912C373.598 59.871 373.665 59.8509 373.732 59.8308C374.804 59.5104 375.689 59.2129 376.387 58.9382ZM209.894 55.4364V70.6795H215.878V55.4364H209.894ZM425.602 55.4364V70.6795H431.586V55.4364H425.602ZM268.907 80.4296V66.2165H262.25V80.4296H268.907Z" fill="white" stroke="white" stroke-width="0.944882" stroke-linecap="round"/>
</g>
<defs>
<clipPath id="clip0_20_292">
<rect width="410.922" height="46.004" fill="white" transform="translate(133.604 39.438)"/>
</clipPath>
</defs>
</svg>
