<svg width="127" height="124" viewBox="0 0 127 124" fill="none" xmlns="http://www.w3.org/2000/svg">
<path d="M127 0.651855H0V123.982H127V0.651855Z" fill="#386641"/>
<path d="M120.225 6.64014H6.07227V118.249H120.225V6.64014Z" fill="white"/>
<path d="M79.8018 42.6274L75.7705 57.6997L71.012 38.1411L65.6039 54.0205L57.7917 26.2788L48.24 65.5613L42.5795 54.0535L23.0986 98.6401H43.9961V96.751H36.9091L40.2082 90.597H38.2671L42.4345 84.4429H40.5023L45.1018 78.2811L49.5642 84.4429H47.632L51.7914 90.597H49.8593L53.1574 96.751H46.1637V98.6401H71.2048V93.9294H57.7986L64.0333 82.2818H60.3716L68.2523 70.6265H64.5986L73.2979 58.9701L81.7429 70.6255H78.0812L85.962 82.2818H82.3082L88.5438 93.9285H75.3135V98.6392H103.248L79.8018 42.6274Z" fill="#386641"/>
</svg>
